HIERARCHY
ROOT joint_0
{
	OFFSET 0.000000 0.000000 0.000000
	CHANNELS 6 Xposition Yposition Zposition Zrotation Yrotation Xrotation 
	JOINT joint_1
	{
		OFFSET 10.084412 4.114712 95.061035
		CHANNELS 3 Zrotation Yrotation Xrotation
		JOINT joint_2
		{
			OFFSET -1.615463 4.243484 87.329956
			CHANNELS 3 Zrotation Yrotation Xrotation
			JOINT joint_3
			{
				OFFSET -3.579636 4.638191 87.154053
				CHANNELS 3 Zrotation Yrotation Xrotation
				JOINT joint_4
				{
					OFFSET 5.443451 7.217075 123.562988
					CHANNELS 3 Zrotation Yrotation Xrotation
					JOINT joint_5
					{
						OFFSET 21.688065 15.141808 90.458008
						CHANNELS 3 Zrotation Yrotation Xrotation
						End Site
						{
							OFFSET 0.000000 0.000000 0.000000
						}
					}
				}
				JOINT joint_6
				{
					OFFSET 3.611374 -22.863556 70.791992
					CHANNELS 3 Zrotation Yrotation Xrotation
					JOINT joint_7
					{
						OFFSET 3.493607 -153.029137 -12.665039
						CHANNELS 3 Zrotation Yrotation Xrotation
						JOINT joint_8
						{
							OFFSET -14.929443 -32.628616 -254.032959
							CHANNELS 3 Zrotation Yrotation Xrotation
							JOINT joint_9
							{
								OFFSET 11.589401 -3.548126 -242.255005
								CHANNELS 3 Zrotation Yrotation Xrotation
								End Site
								{
									OFFSET 0.000000 0.000000 0.000000
								}
							}
						}
					}
				}
				JOINT joint_10
				{
					OFFSET 2.651962 30.943008 67.690918
					CHANNELS 3 Zrotation Yrotation Xrotation
					JOINT joint_11
					{
						OFFSET -6.172562 150.392159 -30.576904
						CHANNELS 3 Zrotation Yrotation Xrotation
						JOINT joint_12
						{
							OFFSET 15.363358 20.741959 -255.254028
							CHANNELS 3 Zrotation Yrotation Xrotation
							JOINT joint_13
							{
								OFFSET 23.282578 -11.086121 -241.182983
								CHANNELS 3 Zrotation Yrotation Xrotation
								End Site
								{
									OFFSET 0.000000 0.000000 0.000000
								}
							}
						}
					}
				}
			}
		}
	}
	JOINT joint_14
	{
		OFFSET -7.080551 -92.910816 -106.291992
		CHANNELS 3 Zrotation Yrotation Xrotation
		JOINT joint_15
		{
			OFFSET -38.248322 -6.001282 -411.906006
			CHANNELS 3 Zrotation Yrotation Xrotation
			JOINT joint_16
			{
				OFFSET -11.189407 -11.244659 -448.150986
				CHANNELS 3 Zrotation Yrotation Xrotation
				JOINT joint_17
				{
					OFFSET 169.870491 -24.631378 -80.352999
					CHANNELS 3 Zrotation Yrotation Xrotation
					End Site
					{
						OFFSET 0.000000 0.000000 0.000000
					}
				}
			}
		}
	}
	JOINT joint_18
	{
		OFFSET -2.796600 85.817772 -112.273987
		CHANNELS 3 Zrotation Yrotation Xrotation
		JOINT joint_19
		{
			OFFSET -44.395859 -8.174402 -411.255005
			CHANNELS 3 Zrotation Yrotation Xrotation
			JOINT joint_20
			{
				OFFSET -25.617508 -5.555587 -447.666992
				CHANNELS 3 Zrotation Yrotation Xrotation
				JOINT joint_21
				{
					OFFSET 163.870811 53.215703 -78.867000
					CHANNELS 3 Zrotation Yrotation Xrotation
					End Site
					{
						OFFSET 0.000000 0.000000 0.000000
					}
				}
			}
		}
	}
}
MOTION
Frames: 8
Frame Time: 0.016667
-277.264679 -46.784584 1079.578003 -1.833589 10.872551 8.772265 0.973057 -6.001834 2.735958 -1.881872 1.151785 -0.630285 -1.857998 -1.328602 0.477306 -1.128251 -4.168941 9.994842 0.000000 0.000000 0.000000 -3.417726 -27.684010 -1.965994 -24.781394 -11.892654 -13.621314 -35.460560 -35.939333 128.058671 0.000000 0.000000 0.000000 3.698170 -9.168469 8.273896 40.034099 -6.773414 13.757681 -157.554925 -61.924157 119.853174 0.000000 0.000000 0.000000 7.979948 -21.741171 -18.376920 1.110808 7.880832 0.311914 0.636062 12.112976 1.997441 0.000000 0.000000 0.000000 -7.488627 -16.310085 9.290400 -8.428648 48.528833 -23.030307 -24.574705 5.135663 -10.577242 0.000000 0.000000 0.000000 
-268.253906 -44.009251 1082.973999 -1.376469 11.224626 8.669575 0.711398 -5.619711 2.889404 -1.996058 1.102075 -0.633608 -1.934798 -1.277679 0.462188 -1.116975 -4.242560 10.059170 0.000000 0.000000 0.000000 -3.826105 -27.820459 -1.559491 -24.364023 -12.134339 -14.118398 -37.151333 -36.016878 128.582822 0.000000 0.000000 0.000000 3.670687 -10.837243 7.925554 41.987993 -7.322908 14.207318 -158.469269 -59.737984 118.166507 0.000000 0.000000 0.000000 8.012672 -21.314108 -18.558884 1.094559 7.380636 0.382920 0.579461 13.284614 2.139843 0.000000 0.000000 0.000000 -6.166497 -18.951673 10.368998 -7.922485 51.252635 -21.647534 -22.686873 5.923383 -10.362577 0.000000 0.000000 0.000000 
-259.642883 -40.908947 1085.828003 -0.961803 11.436973 8.553684 0.331838 -5.144803 3.078016 -2.114463 1.025904 -0.679793 -1.982585 -1.210682 0.469144 -1.108287 -4.303663 10.091201 0.000000 0.000000 0.000000 -4.220016 -27.293370 -1.153094 -22.911071 -12.362920 -14.862157 -39.671998 -35.520903 128.925765 0.000000 0.000000 0.000000 3.497113 -12.104618 7.537632 41.906320 -7.222292 15.111399 -163.474323 -62.246680 121.849298 0.000000 0.000000 0.000000 7.952872 -20.860948 -18.711256 1.112645 7.070346 0.481104 0.576494 14.131747 2.263287 0.000000 0.000000 0.000000 -4.763989 -21.301638 11.234506 -7.267733 52.842011 -19.690035 -19.778201 6.561551 -9.796017 0.000000 0.000000 0.000000 
-250.733032 -37.353874 1087.319946 -0.793842 11.374834 8.528363 -0.114310 -4.599843 3.223562 -2.197212 0.916716 -0.784868 -1.954649 -1.096866 0.533574 -1.099734 -4.305730 10.094800 0.000000 0.000000 0.000000 -4.529624 -27.227102 -1.079967 -22.774857 -12.286243 -15.653764 -46.360947 -40.078768 131.977314 0.000000 0.000000 0.000000 3.294937 -9.577581 7.260608 30.984566 -5.422777 15.774268 173.382549 -72.588733 153.143113 0.000000 0.000000 0.000000 7.760271 -20.069952 -18.885517 1.176862 6.762119 0.567819 0.652549 14.213700 2.313003 0.000000 0.000000 0.000000 -3.382569 -22.751658 11.836785 -6.304336 52.833258 -17.553263 -15.885571 6.391524 -8.544735 0.000000 0.000000 0.000000 
-241.905243 -33.395008 1087.957031 -0.756327 11.073336 8.532144 -0.642546 -3.916562 3.373285 -2.276812 0.754491 -0.960313 -1.900570 -0.932659 0.646035 -1.074261 -4.281079 10.069007 0.000000 0.000000 0.000000 -4.979970 -29.206163 -0.996595 -24.392661 -11.032614 -17.328205 -65.396500 -51.987706 145.234335 0.000000 0.000000 0.000000 2.578136 -0.370149 6.811239 4.049451 -2.901332 17.537216 124.263668 -62.310573 -134.980173 0.000000 0.000000 0.000000 7.447927 -19.072917 -19.063042 1.268241 6.561558 0.677813 0.780658 13.777383 2.313931 0.000000 0.000000 0.000000 -1.804026 -23.474099 12.262557 -4.856951 51.277274 -14.982908 -10.897462 6.004953 -6.728029 0.000000 0.000000 0.000000 
-233.329041 -29.223799 1087.473022 -0.887568 10.810965 8.513292 -1.077501 -3.418292 3.474709 -2.408128 0.613692 -1.083728 -1.768583 -0.795797 0.729621 -1.848828 -4.216493 9.858005 0.000000 0.000000 0.000000 -5.107357 -27.681466 -1.155906 -41.149528 -18.970393 -14.191636 -96.803582 -59.773252 -177.797607 0.000000 0.000000 0.000000 2.988220 -5.034978 6.888620 12.390346 -2.055742 16.918555 101.371283 -54.849379 -126.107834 0.000000 0.000000 0.000000 7.146104 -18.220345 -19.215421 1.380291 6.521172 0.760368 0.944291 12.909327 2.268386 0.000000 0.000000 0.000000 -0.652615 -23.902689 12.597123 -3.677054 48.541169 -12.756784 -7.355464 5.430501 -5.203262 0.000000 0.000000 0.000000 
-225.126648 -25.106552 1085.550049 -1.189535 10.824598 8.435111 -0.379945 -3.437066 3.405536 -1.293883 0.699144 -1.101213 -3.760110 -0.872134 0.816592 2.263139 -4.131409 10.369870 0.000000 0.000000 0.000000 -2.131355 40.755683 -2.661141 -141.158979 30.524284 65.536311 66.262192 -14.665071 133.557263 0.000000 0.000000 0.000000 3.267310 -7.463806 6.896399 -0.623028 4.911263 17.115631 -118.983779 -45.121891 127.796464 0.000000 0.000000 0.000000 6.912211 -17.814844 -19.300045 1.512776 6.697186 0.767684 1.142108 11.614550 2.175414 0.000000 0.000000 0.000000 -0.580428 -24.304862 12.928470 -3.489916 44.866760 -11.339469 -6.831009 4.796360 -4.652669 0.000000 0.000000 0.000000 
-217.245285 -20.976137 1082.300049 -1.724560 10.966145 8.249296 -1.440711 -3.707990 3.511938 -2.821800 0.576213 -0.959887 -1.089573 -0.781266 0.644194 -3.200054 -3.914056 9.241964 0.000000 0.000000 0.000000 -2.827998 32.796956 -2.994906 -120.139701 -9.756834 65.148846 -143.404294 -7.070383 -124.338643 0.000000 0.000000 0.000000 3.388075 -7.397762 6.829601 -1.691650 4.502873 16.465289 52.280042 34.643792 -128.593335 0.000000 0.000000 0.000000 6.729327 -17.688465 -19.252384 1.681657 7.067048 0.703458 1.389207 9.896286 2.040855 0.000000 0.000000 0.000000 -1.283041 -24.294575 13.294602 -4.121718 39.906627 -10.210127 -8.063546 4.365856 -4.869251 0.000000 0.000000 0.000000 
